<svg width="721" height="720" viewBox="0 0 721 720" fill="none" xmlns="http://www.w3.org/2000/svg">
<path fill-rule="evenodd" clip-rule="evenodd" d="M328 1.046C282.614 5.283 235.687 19.08 195.207 40.091C179.474 48.257 178.675 48.721 163.586 58.469C126.215 82.613 90.92 116.957 64.696 154.696C19.233 220.124 -3.908 301.878 0.986998 379.772C1.565 388.972 2.223 397.625 2.448 399C2.673 400.375 3.133 403.75 3.47 406.5C8.306 445.965 20.443 485.14 39.564 523C74.684 592.538 130.916 648.315 200.5 682.635C235.844 700.067 275.017 712.252 311 717.008C315.675 717.626 320.85 718.363 322.5 718.646C329.642 719.87 379.683 720.191 391.773 719.09C438.7 714.816 482.872 702.138 524 681.138C572.056 656.601 611.451 624.217 644.604 582C669.427 550.391 689.307 513.43 702.427 474.5C707.048 460.787 714.269 432.917 715.511 424C715.856 421.525 716.517 417.7 716.98 415.5C720.951 396.637 721.916 339.354 718.657 316C712.693 273.258 701.658 236.9 683.467 200.051C674.509 181.905 672.364 178.141 661.327 161.198C636.701 123.394 599.679 86.261 561.018 60.588C554.133 56.016 546.25 51.041 543.5 49.533C540.75 48.025 538.05 46.44 537.5 46.011C533.3 42.736 504.043 29.151 487 22.563C463.242 13.379 428.985 5.139 399.5 1.516C390.923 0.462001 337.982 0.114 328 1.046ZM355.248 145.059C356.842 151.901 360.107 166.206 362.504 176.847C364.9 187.488 367.073 196.407 367.332 196.666C367.592 196.925 372.445 196.597 378.117 195.938C384.49 195.197 394.939 194.949 405.465 195.288C425.004 195.918 436.191 198.364 448.057 204.599C468.808 215.504 482.553 239.502 483.509 266.5C484.109 283.446 478.899 297.466 467.374 309.914L461.08 316.711L469.344 317.346C489.213 318.874 502.631 324.556 514.502 336.469C525.88 347.888 531.762 360.593 535.461 381.741C540.846 412.526 532.846 440.504 513.562 458.33C500.164 470.715 479.02 482.186 453.5 490.916C445.25 493.738 437.981 496.23 437.347 496.455C436.514 496.749 436.718 499.031 438.081 504.681C445.479 535.354 451.036 561.356 450.333 562.017C449.468 562.831 415.424 571 412.899 571C411.523 571 409.354 562.61 399.326 518.5C397.951 512.45 396.669 507.342 396.478 507.148C395.978 506.643 366.637 513.045 365.814 513.838C365.436 514.202 368.489 528.847 372.598 546.382C376.707 563.918 379.896 578.437 379.686 578.648C379.21 579.123 340.681 588.022 340.408 587.72C340.299 587.599 338.55 580.3 336.521 571.5C334.493 562.7 331.297 548.975 329.421 541C327.545 533.025 325.784 525.529 325.509 524.343C325.178 522.918 324.412 522.318 323.254 522.577C293.777 529.17 265.11 535.662 256.686 537.651C250.738 539.056 245.669 540.002 245.42 539.754C244.816 539.149 241.814 491.853 242.346 491.32C242.576 491.091 247.654 489.817 253.632 488.49C271.678 484.483 275.793 483 278.999 479.348C283.738 473.951 283.651 471.778 277.655 446C274.649 433.075 268.967 408.55 265.028 391.5C261.089 374.45 254.787 347.225 251.025 331C247.262 314.775 243.609 298.8 242.906 295.5C240.67 284.989 235.509 279.023 227.001 277.111C222.051 275.999 211.27 277.512 196.007 281.459C190.786 282.809 186.234 283.596 185.892 283.207C185.353 282.594 183.767 275.924 177.465 247.754C176.758 244.593 176.476 241.826 176.84 241.603C177.203 241.381 189.425 238.435 204 235.055C242.154 226.209 255.242 223.092 255.55 222.777C255.699 222.625 252.476 208.133 248.388 190.573C244.299 173.013 241.302 158.337 241.727 157.961C242.152 157.584 250.969 155.326 261.32 152.942C274.952 149.803 280.337 148.927 280.855 149.765C281.248 150.401 284.666 164.664 288.45 181.461C292.235 198.257 295.717 212 296.189 212C296.925 212 326.25 204.873 326.642 204.599C326.72 204.545 323.519 190.325 319.53 173C315.204 154.211 312.683 141.346 313.284 141.118C315.891 140.13 350.612 132.179 351.426 132.384C351.935 132.512 353.655 138.216 355.248 145.059ZM344.852 250.493C333.944 252.329 309.667 258.069 308.598 259.064C308.068 259.558 308.811 264.972 310.4 272.202C316.004 297.693 325.25 336.527 325.879 337.216C326.238 337.61 329 337.32 332.016 336.572C335.032 335.825 341.775 334.219 347 333.004C385.754 323.995 407.312 308.792 409.602 288.856C411.17 275.211 403.156 259.786 391.32 253.665C382.397 249.051 361.778 247.643 344.852 250.493ZM394.022 366.159C388.81 366.598 379.81 367.894 374.022 369.039C363.942 371.034 335.826 377.841 335.237 378.429C335.082 378.585 337.62 390.364 340.878 404.606C344.136 418.848 348.496 437.925 350.568 447C352.639 456.075 354.629 463.847 354.989 464.271C355.747 465.165 374.746 461.232 390.024 457.019C445.998 441.582 467.378 417.089 451.905 386.126C444.029 370.365 424.418 363.6 394.022 366.159Z" fill="#E7AF1F"/>
</svg>
